<?xml version="1.0" encoding="utf-8"?>
<!-- Generator: Adobe Illustrator 23.1.1, SVG Export Plug-In . SVG Version: 6.00 Build 0)  -->
<svg version="1.1" id="Laag_1" xmlns="http://www.w3.org/2000/svg" xmlns:xlink="http://www.w3.org/1999/xlink" x="0px" y="0px"
	 viewBox="0 0 64 80" style="enable-background:new 0 0 64 80;" xml:space="preserve">
<style type="text/css">
	.st0{fill:#606060;}
</style>
<title>05 Clap Hand</title>
<g>
	<path class="st0" d="M53.6,31.5c-1.1-2.1-3.6-2.9-5.6-1.8c-0.1,0-0.1,0.1-0.2,0.1l-1.2,0.7c-0.2-0.6-0.5-1.2-0.9-1.7
		c-0.6-0.6-1.3-1.1-2.1-1.3l0.4-0.4c1.7-1.6,1.8-4.2,0.3-5.9c-1.5-1.7-4.2-1.9-5.9-0.3c-0.1,0.1-0.1,0.1-0.2,0.2l-2,2
		c-0.4-1.9-2.1-3.2-4.1-3.2l0,0c-1.1,0-2.2,0.4-3,1.2L22.2,28l0,0l-0.8,0.8c-0.1-1.2-0.7-2.4-1.6-3.2c-1.2-1.1-3.1-1.1-4.3,0.1
		l-7.2,7.2c-6.6,6.4-7,16.9-0.9,23.8c1.2,1.4,2.7,2.5,4.3,3.4c0.3,0.4,0.7,0.7,1.1,1.1c5.5,4.9,13.5,5.7,19.8,2l16.6-9.6
		c2-1.1,2.8-3.6,1.8-5.6c-0.4-0.8-1-1.4-1.8-1.8l2.1-1.2c2-1.1,2.8-3.6,1.8-5.6l0,0c-0.4-0.8-1-1.4-1.7-1.8l0.4-0.2
		C53.8,36.1,54.6,33.6,53.6,31.5z M8.8,55.3c-5.4-6.1-5-15.4,0.8-21l7.2-7.2c0.4-0.4,1.1-0.5,1.5-0.1c1.3,1.2,1.4,3.3,0.2,4.6
		c0,0,0,0.1-0.1,0.1l0,0l-6.8,6.8c-0.4,0.4-0.4,1,0,1.4s1,0.4,1.4,0l6.8-6.8l0,0l0,0l0,0l0,0l0,0l0,0l0,0l10.6-10.6
		c0.4-0.4,1-0.6,1.5-0.6l0,0c1.2,0,2.2,1,2.2,2.2c0,0.6-0.2,1.1-0.6,1.6L22.2,37c-0.4,0.4-0.4,1,0,1.4s1,0.4,1.4,0l0,0l11.3-11.3
		l4.5-4.5c0.9-0.9,2.3-0.9,3.1,0l0.1,0.1c0.8,0.9,0.7,2.3-0.2,3.2l-2.9,2.9l0,0L26.7,41.5c-0.4,0.4-0.4,1,0,1.4s1,0.4,1.4,0l0,0
		L41,30.1c0.4-0.4,1-0.7,1.6-0.6c0.6,0,1.2,0.3,1.6,0.7c0.4,0.5,0.6,1.2,0.5,1.8l0,0c0,0.1,0,0.2-0.1,0.3v0.1c0,0.1-0.1,0.1-0.1,0.2
		c0,0.1-0.1,0.1-0.1,0.2l-0.1,0.1c-0.1,0.1-0.2,0.2-0.3,0.3l-4.3,4.3l0,0l-8.4,8.4c-0.4,0.4-0.4,1,0,1.4s1,0.4,1.4,0l0,0l8.4-8.4
		l0,0c0.7-0.8,1.9-0.9,2.7-0.3l0.1,0.1l0.1,0.1c0.1,0.1,0.1,0.1,0.2,0.2l0,0c0.2,0.2,0.3,0.5,0.4,0.7c0.1,0.2,0.1,0.4,0.1,0.6v0.1
		c0,0.4-0.1,0.8-0.3,1.1c0,0,0,0.1-0.1,0.1c-0.1,0.2-0.2,0.3-0.3,0.4l0,0L30.5,55.8c-0.3,0.3-0.6,0.6-0.9,0.8
		c-4.3,3.6-10.2,4.5-15.3,2.5c-0.4-0.1-0.7-0.3-1.1-0.5C11.5,57.8,10,56.7,8.8,55.3z M48.1,51.8l-16.6,9.6
		c-4.1,2.4-9.2,2.7-13.5,0.7c1.2,0.1,2.5,0.2,3.7,0c0.1,0,0.2,0,0.3,0c0.5-0.1,1-0.1,1.5-0.2c0.2,0,0.3-0.1,0.5-0.1
		c0.4-0.1,0.8-0.2,1.2-0.3c0.2-0.1,0.4-0.1,0.6-0.2c0.4-0.1,0.8-0.3,1.1-0.5c0.2-0.1,0.4-0.2,0.6-0.3c0.4-0.2,0.7-0.4,1.1-0.6
		c0.2-0.1,0.4-0.2,0.5-0.3c0.4-0.2,0.7-0.5,1.1-0.7c0.2-0.1,0.3-0.2,0.5-0.3c0.4-0.3,0.9-0.7,1.3-1.1l0.1-0.1l3.3-3.3l0,0
		c0.2,0,0.3,0,0.5-0.1l10.3-6l0,0c1.1-0.6,2.4-0.2,3,0.8v0.1C49.6,49.9,49.2,51.2,48.1,51.8L48.1,51.8z M50.3,43.1l-5.2,3l0,0
		l-4.7,2.7l5.2-5.2c0.2-0.2,0.3-0.4,0.5-0.6c0-0.1,0.1-0.1,0.1-0.2c0.1-0.1,0.2-0.3,0.2-0.4c0-0.1,0.1-0.2,0.1-0.3
		c0.1-0.3,0.2-0.6,0.3-1c0-0.1,0-0.2,0-0.3s0-0.3,0-0.4c0-0.1,0-0.2,0-0.3s0-0.1,0-0.2l1.4-0.8l0,0c1.1-0.6,2.4-0.2,3,0.8
		c0,0,0,0.1,0.1,0.1C51.8,41.2,51.3,42.6,50.3,43.1L50.3,43.1z M50.8,35.5l-3.5,2l0,0l-1.2,0.7c-0.1-0.1-0.2-0.3-0.3-0.4
		c-0.1-0.1-0.3-0.3-0.4-0.4l0,0c-0.1-0.1-0.2-0.1-0.3-0.2s-0.2-0.1-0.3-0.2c-0.4-0.2-0.8-0.4-1.2-0.5l1.7-1.7
		c0.2-0.2,0.3-0.4,0.5-0.6c0.1-0.1,0.1-0.1,0.2-0.2c0.1-0.1,0.1-0.2,0.2-0.4c0.1-0.2,0.2-0.5,0.3-0.7v-0.1l2.2-1.3
		c1.1-0.6,2.4-0.2,3,0.8c0,0,0,0.1,0.1,0.1C52.3,33.6,51.8,34.9,50.8,35.5L50.8,35.5z"/>
	<path class="st0" d="M52.8,18.6c0.4,0.4,1,0.4,1.4,0l6.5-6.5c0.4-0.4,0.4-1,0-1.4c-0.4-0.4-1-0.4-1.4,0l0,0l-6.5,6.5
		C52.4,17.6,52.4,18.2,52.8,18.6z"/>
	<path class="st0" d="M59.5,18.5l-5,3c-0.5,0.3-0.6,0.9-0.4,1.4s0.9,0.6,1.4,0.4l0,0l5-3c0.5-0.3,0.6-0.9,0.4-1.4S60,18.2,59.5,18.5
		L59.5,18.5z"/>
	<path class="st0" d="M48.6,18.3c0.5,0.2,1.1,0,1.3-0.4l0,0l3-6c0.2-0.5,0-1.1-0.4-1.3c-0.5-0.2-1.1,0-1.3,0.4l-3,6
		C47.9,17.5,48.1,18.1,48.6,18.3L48.6,18.3z"/>
	<path class="st0" d="M25.1,15.8c0.2,0.5,0.8,0.7,1.3,0.5c0.5-0.2,0.7-0.8,0.5-1.3l-3-7c-0.2-0.5-0.8-0.7-1.3-0.5
		c-0.5,0.2-0.7,0.8-0.5,1.3L25.1,15.8z"/>
	<path class="st0" d="M30,16.4c0.6,0,1-0.4,1-1v-6c0-0.6-0.4-1-1-1s-1,0.4-1,1v6C29,16,29.4,16.4,30,16.4z"/>
	<path class="st0" d="M21.2,18c0.3,0.4,1,0.5,1.4,0.2c0.4-0.3,0.5-1,0.2-1.4l0,0l-4-5c-0.3-0.4-1-0.5-1.4-0.2s-0.5,1-0.2,1.4l0,0
		L21.2,18z"/>
</g>
</svg>
