<?xml version="1.0" encoding="utf-8"?>
<!-- Generator: Adobe Illustrator 23.1.1, SVG Export Plug-In . SVG Version: 6.00 Build 0)  -->
<svg version="1.1" id="Laag_1" xmlns="http://www.w3.org/2000/svg" xmlns:xlink="http://www.w3.org/1999/xlink" x="0px" y="0px"
	 viewBox="0 0 17.6 24.2" style="enable-background:new 0 0 17.6 24.2;" xml:space="preserve">
<style type="text/css">
	.st0{fill:#00D66C;}
</style>
<g id="Path_3">
	<path class="st0" d="M0.5,23.3V5.1c0-2.6,2.1-4.6,4.6-4.6h7.3c2.6,0,4.6,2.1,4.6,4.6v18.1l-7.9-5.7l-0.3-0.2l-0.3,0.2L0.5,23.3z"/>
	<path class="st0" d="M5.1,1C2.9,1,1,2.9,1,5.1v17.2l7.3-5.1l0.6-0.4l0.6,0.4l7.1,5.1V5.1c0-2.3-1.9-4.1-4.1-4.1H5.1 M5.1,0h7.3
		c2.8,0,5.1,2.3,5.1,5.1v19.1L8.9,18L0,24.2V5.1C0,2.3,2.3,0,5.1,0z"/>
</g>
</svg>
