<svg xmlns="http://www.w3.org/2000/svg" width="17.635" height="24.249" viewBox="0 0 17.635 24.249">
  <g id="Path_3" data-name="Path 3" fill="#fff">
    <path d="M 0.4999969601631165 23.29018592834473 L 0.4999969601631165 5.143617153167725 C 0.4999969601631165 2.583117008209229 2.583117008209229 0.4999970495700836 5.143617153167725 0.4999970495700836 L 12.49163722991943 0.4999970495700836 C 15.05213737487793 0.4999970495700836 17.13525772094727 2.583117008209229 17.13525772094727 5.143617153167725 L 17.13525772094727 23.27749633789062 L 9.208677291870117 17.62174797058105 L 8.921557426452637 17.41687774658203 L 8.632246971130371 17.6186466217041 L 0.4999969601631165 23.29018592834473 Z" stroke="none"/>
    <path d="M 5.143616676330566 0.9999961853027344 C 2.858817100524902 0.9999961853027344 0.9999961853027344 2.858816146850586 0.9999961853027344 5.143617630004883 L 0.9999961853027344 22.33188629150391 L 8.346226692199707 17.20852661132812 L 8.924846649169922 16.80499649047852 L 9.499087333679199 17.2147274017334 L 16.63525772094727 22.30650520324707 L 16.63525772094727 5.143617630004883 C 16.63525772094727 2.858816146850586 14.7764368057251 0.9999961853027344 12.49163627624512 0.9999961853027344 L 5.143616676330566 0.9999961853027344 M 5.143616676330566 -3.814697265625e-06 L 12.49163627624512 -3.814697265625e-06 C 15.33237648010254 -3.814697265625e-06 17.63525772094727 2.302877426147461 17.63525772094727 5.143617630004883 L 17.63525772094727 24.24847793579102 L 8.918267250061035 18.02875709533691 L -3.814697265625e-06 24.24847793579102 L -3.814697265625e-06 5.143617630004883 C -3.814697265625e-06 2.302877426147461 2.302877426147461 -3.814697265625e-06 5.143616676330566 -3.814697265625e-06 Z" stroke="none" fill="#00d66c"/>
  </g>
</svg>
